<svg xmlns="http://www.w3.org/2000/svg" width="667.35" height="670.516" viewBox="0 0 667.35 670.516">
  <path id="Path_524" data-name="Path 524" d="M20792,1852.513s14.867-96.145,52.639-123.615,77.26-109.88,77.26-109.88,22.32-109.88,75.543-125.332,20.6-6.868,121.9,0,180.271-12.018,180.271-12.018,29.189-5.151,60.092,0,77.26,60.091,56.656,104.73-80.7,75.543-68.676,118.465-12.018,46.356,68.676,132.2,0,206.026,0,206.026-72.109,87.561-116.748,94.428-135.635,24.036-151.086,0-108.162-39.488-108.162-39.488h-72.109s-160.217-56.657-176.254-125.332S20792,1852.513,20792,1852.513Z" transform="translate(-20784.873 -1479.378)" fill="#f1a3a7"/>
</svg>
